<?xml version="1.0" encoding="UTF-8" standalone="no"?>
<svg
   xmlns:dc="http://purl.org/dc/elements/1.1/"
   xmlns:cc="http://creativecommons.org/ns#"
   xmlns:rdf="http://www.w3.org/1999/02/22-rdf-syntax-ns#"
   xmlns:svg="http://www.w3.org/2000/svg"
   xmlns="http://www.w3.org/2000/svg"
   id="svg8"
   preserveAspectRatio="xMidYMid meet"
   viewBox="0 0 1620 1620"
   height="100pt"
   width="100pt"
   version="1.0">
  <metadata
     id="metadata14">
    <rdf:RDF>
      <cc:Work
         rdf:about="">
        <dc:format>image/svg+xml</dc:format>
        <dc:type
           rdf:resource="http://purl.org/dc/dcmitype/StillImage" />
        <dc:title></dc:title>
      </cc:Work>
    </rdf:RDF>
  </metadata>
  <defs
     id="defs12" />
  <path
     id="path3764-3"
     d="m 810.00002,1335.8252 c -209.0915,0 -443.55,-199.275 -443.55,-443.55021 0,-206.99997 138.825,-345.82498 261,-467.99998 81,-81.00001 159.45,-159.45001 182.55,-246.825 23.175,87.44999 100.275,165.82499 182.55,246.825 122.17498,122.175 260.99998,261 260.99998,467.99998 0,244.27521 -234.4585,443.55021 -443.54998,443.55021 z"
     style="fill:#ffffff;fill-opacity:1;stroke:none;stroke-width:0.75" />
  <g
     transform="matrix(0.1,0,0,-0.1,-477.61098,591.15639)"
     id="g4625"
     style="fill:#000000;stroke:none">
    <path
       d="m 13191.306,-107.75632 c -615.804,-107.45021 -1264.016,-454.59707 -1669.149,-900.92838 -453.75,-495.9238 -664.42,-917.4591 -785.959,-1586.9565 -283.594,-1578.6913 656.315,-3033.4017 2260.643,-3504.5294 56.719,-16.5308 97.233,-181.8388 97.233,-454.5971 v -429.8008 l 348.414,57.8578 c 1045.245,173.5734 2309.26,1173.6868 2819.729,2239.9233 259.285,545.5164 395.491,619.9051 395.491,1487.772 0,810.0093 -144.308,958.7864 -338.772,1380.3217 -201.49,445.3288 -516.064,844.07218 -879.503,1143.36457 -338.093,278.42029 -718.474,470.77696 -1089.446,534.51121 -623.905,99.184787 -729.24,107.450188 -1158.681,33.0616 z m 56.719,-1281.13658 c 178.258,-231.4312 218.772,-570.3125 97.232,-768.6821 -121.54,-190.1042 -469.955,16.5308 -632.009,371.943 -137.746,297.5544 -137.746,297.5544 48.616,454.5971 243.081,206.635 291.696,198.3696 486.161,-57.858 z m 1264.016,82.6542 c 226.874,-239.6967 -8.104,-785.2131 -388.928,-909.1941 -324.107,-107.4501 -413.237,462.8623 -129.643,826.5399 194.464,247.9622 332.209,272.7584 518.571,82.6542 z m -2106.695,-892.6634 c 145.849,-66.1231 316.006,-198.3695 364.621,-305.8198 89.13,-157.0425 81.027,-206.6349 -48.615,-297.5544 -186.362,-140.5118 -388.928,-140.5118 -680.624,16.5308 -259.287,132.2464 -324.108,421.5354 -145.849,603.3742 121.539,123.9811 170.157,123.9811 510.467,-16.5308 z m 388.929,-1206.7483 c 113.438,-107.4502 -178.259,-479.3931 -445.646,-570.3126 -316.005,-115.7156 -550.982,8.2654 -550.982,289.2891 0,347.1467 729.24,553.7817 996.628,281.0235 z m 2487.519,41.3269 c 243.08,-123.9809 283.594,-239.6965 194.465,-487.6585 -121.54,-322.3505 -1004.731,-8.2655 -1004.731,363.6776 0,264.4928 421.338,330.616 810.266,123.9809 z m -1863.614,-909.1939 c 0,-471.1277 -380.825,-776.9475 -632.008,-520.7201 -218.771,223.1657 -16.205,752.1513 340.313,884.3977 202.566,82.654 291.695,-16.5309 291.695,-363.6776 z m 1012.835,165.308 c 356.516,-355.4121 194.463,-859.6016 -234.979,-752.1513 -226.874,57.8578 -372.723,413.27 -316.004,735.6205 56.72,289.289 283.594,289.289 550.983,16.5308 z"
       id="path4621"
       style="fill:#427100;fill-opacity:1;stroke-width:8.18362904" />
    <path
       id="path4623"
       d="m 18597.86,3533.3138 c -1530,1530.0001 -3561.75,2378.2501 -5721.75,2378.2501 -4461.7502,0 -8100.0002,-3638.2501 -8100.0002,-8100.0003 0,-4461.7506 3638.25,-8100.0006 8100.0002,-8100.0006 4461.75,0 8100,3638.25 8100,8100.0006 0,2160.000069 -848.25,4191.7501 -2378.25,5721.7502 z M 12876.11,-7446.687 c -2090.915,0 -4435.5002,1992.75 -4435.5002,4435.5006 0,2069.99997 1388.2502,3458.2501 2610.0002,4680.0001 810,810.0001 1594.5,1594.5001 1825.5,2468.2501 231.75,-874.5 1002.75,-1658.25 1825.5,-2468.2501 1221.75,-1221.75 2610,-2610.00013 2610,-4680.0001 0,-2442.7506 -2344.585,-4435.5006 -4435.5,-4435.5006 z"
       style="fill:#427100;fill-opacity:1;stroke-width:7.50000048" />
  </g>
</svg>
